# xmcd
# 
# Track frame offsets:
#     150
#     38957
#     85010
#     130498
#     172269
# 
# Disc length: 2799
# 
# Revision: 1
# Processed by: cddbd v1.5.2PL0 Copyright (c) Steve Scherf et al.
# Submitted via: fre:ac v1.0.31
# 
DISCID=400aed05
DTITLE=Deafheaven - New Bermuda
DYEAR=2015
DGENRE=Rock/Pop
TTITLE0=Brought to the Water
TTITLE1=Luna
TTITLE2=Baby Blue
TTITLE3=Come Back
TTITLE4=Gifts for the Earth
EXTD=
EXTT0=
EXTT1=
EXTT2=
EXTT3=
EXTT4=
PLAYORDER=
